<svg width="225" height="42" viewBox="0 0 225 42" fill="none" xmlns="http://www.w3.org/2000/svg">
<path d="M11.952 9.424C11.84 9.312 11.632 9.16 11.328 8.968C11.04 8.776 10.68 8.592 10.248 8.416C9.832 8.224 9.376 8.064 8.88 7.936C8.384 7.808 7.88 7.744 7.368 7.744C6.456 7.744 5.776 7.912 5.328 8.248C4.88 8.584 4.656 9.056 4.656 9.664C4.656 10.016 4.736 10.312 4.896 10.552C5.072 10.776 5.32 10.976 5.64 11.152C5.96 11.328 6.36 11.488 6.84 11.632C7.336 11.776 7.904 11.928 8.544 12.088C9.376 12.312 10.128 12.552 10.8 12.808C11.488 13.064 12.064 13.384 12.528 13.768C13.008 14.152 13.376 14.616 13.632 15.16C13.888 15.688 14.016 16.344 14.016 17.128C14.016 18.04 13.84 18.824 13.488 19.48C13.152 20.12 12.696 20.64 12.12 21.04C11.544 21.44 10.872 21.736 10.104 21.928C9.336 22.104 8.536 22.192 7.704 22.192C6.424 22.192 5.16 22 3.912 21.616C2.664 21.232 1.544 20.688 0.552 19.984L2.016 17.128C2.16 17.272 2.416 17.464 2.784 17.704C3.168 17.928 3.616 18.16 4.128 18.4C4.64 18.624 5.208 18.816 5.832 18.976C6.456 19.136 7.096 19.216 7.752 19.216C9.576 19.216 10.488 18.632 10.488 17.464C10.488 17.08 10.384 16.76 10.176 16.504C9.968 16.248 9.672 16.024 9.288 15.832C8.904 15.64 8.44 15.464 7.896 15.304C7.352 15.144 6.744 14.976 6.072 14.8C5.256 14.576 4.544 14.336 3.936 14.08C3.344 13.808 2.848 13.496 2.448 13.144C2.048 12.792 1.744 12.376 1.536 11.896C1.344 11.416 1.248 10.848 1.248 10.192C1.248 9.328 1.408 8.56 1.728 7.888C2.048 7.216 2.488 6.656 3.048 6.208C3.624 5.76 4.288 5.424 5.04 5.2C5.792 4.96 6.6 4.84 7.464 4.84C8.664 4.84 9.768 5.032 10.776 5.416C11.784 5.784 12.664 6.224 13.416 6.736L11.952 9.424ZM23.4375 21.352C23.0055 21.544 22.4695 21.736 21.8295 21.928C21.2055 22.12 20.5495 22.216 19.8615 22.216C19.4135 22.216 18.9895 22.16 18.5895 22.048C18.2055 21.936 17.8615 21.76 17.5575 21.52C17.2695 21.264 17.0375 20.944 16.8615 20.56C16.6855 20.16 16.5975 19.68 16.5975 19.12V11.896H14.9655V9.424H16.5975V5.344H19.8135V9.424H22.4775V11.896H19.8135V18.04C19.8135 18.488 19.9335 18.808 20.1735 19C20.4135 19.176 20.7015 19.264 21.0375 19.264C21.3735 19.264 21.7015 19.208 22.0215 19.096C22.3415 18.984 22.5975 18.888 22.7895 18.808L23.4375 21.352ZM28.4976 22.24C27.8896 22.24 27.3216 22.144 26.7936 21.952C26.2656 21.744 25.8096 21.464 25.4256 21.112C25.0416 20.744 24.7376 20.32 24.5136 19.84C24.3056 19.36 24.2016 18.832 24.2016 18.256C24.2016 17.664 24.3296 17.12 24.5856 16.624C24.8576 16.112 25.2256 15.68 25.6896 15.328C26.1696 14.976 26.7376 14.704 27.3936 14.512C28.0496 14.304 28.7696 14.2 29.5536 14.2C30.1136 14.2 30.6576 14.248 31.1856 14.344C31.7296 14.44 32.2096 14.576 32.6256 14.752V14.032C32.6256 13.2 32.3856 12.56 31.9056 12.112C31.4416 11.664 30.7456 11.44 29.8176 11.44C29.1456 11.44 28.4896 11.56 27.8496 11.8C27.2096 12.04 26.5536 12.392 25.8816 12.856L24.8976 10.816C26.5136 9.744 28.2576 9.208 30.1296 9.208C31.9376 9.208 33.3376 9.656 34.3296 10.552C35.3376 11.432 35.8416 12.712 35.8416 14.392V18.304C35.8416 18.64 35.9056 18.88 36.0336 19.024C36.1616 19.168 36.3856 19.248 36.7056 19.264V22C36.4016 22.064 36.1136 22.104 35.8416 22.12C35.5856 22.152 35.3616 22.168 35.1696 22.168C34.5616 22.152 34.0976 22.016 33.7776 21.76C33.4576 21.488 33.2576 21.128 33.1776 20.68L33.1056 19.984C32.5456 20.72 31.8656 21.28 31.0656 21.664C30.2656 22.048 29.4096 22.24 28.4976 22.24ZM29.4096 19.888C29.9536 19.888 30.4656 19.792 30.9456 19.6C31.4416 19.408 31.8256 19.152 32.0976 18.832C32.4496 18.56 32.6256 18.256 32.6256 17.92V16.48C32.2416 16.336 31.8256 16.224 31.3776 16.144C30.9296 16.048 30.4976 16 30.0816 16C29.2496 16 28.5696 16.192 28.0416 16.576C27.5136 16.944 27.2496 17.416 27.2496 17.992C27.2496 18.536 27.4576 18.992 27.8736 19.36C28.2896 19.712 28.8016 19.888 29.4096 19.888ZM51.1086 6.976C50.4526 6.976 49.9726 7.2 49.6686 7.648C49.3806 8.096 49.2366 8.616 49.2366 9.208V10.888H52.5486V13.36H49.2366V22H46.0206V13.36H42.9486V22H39.7326V13.36H38.1006V10.888H39.7326V10.12C39.7326 9.416 39.8286 8.76 40.0206 8.152C40.2126 7.528 40.4846 6.992 40.8366 6.544C41.2046 6.096 41.6526 5.744 42.1806 5.488C42.7246 5.232 43.3326 5.104 44.0046 5.104C44.5486 5.104 45.0766 5.168 45.5886 5.296C46.1166 5.424 46.6206 5.592 47.1006 5.8C47.4846 5.32 47.9486 4.944 48.4926 4.672C49.0366 4.384 49.6926 4.24 50.4606 4.24C51.0686 4.24 51.6126 4.32 52.0926 4.48C52.5886 4.64 53.0526 4.808 53.4846 4.984L52.8366 7.408C52.6126 7.296 52.3566 7.2 52.0686 7.12C51.7966 7.024 51.4766 6.976 51.1086 6.976ZM46.0206 9.64C46.0206 9.576 46.0206 9.48 46.0206 9.352C46.0366 9.208 46.0526 9.064 46.0686 8.92C46.0846 8.76 46.1086 8.616 46.1406 8.488C46.1726 8.36 46.2046 8.256 46.2366 8.176C45.9966 8.048 45.7326 7.96 45.4446 7.912C45.1566 7.864 44.8926 7.84 44.6526 7.84C44.3326 7.84 44.0606 7.904 43.8366 8.032C43.6286 8.16 43.4606 8.328 43.3326 8.536C43.2046 8.728 43.1086 8.96 43.0446 9.232C42.9806 9.488 42.9486 9.744 42.9486 10V10.888H46.0206V9.64ZM67.6763 7.864H62.2523V22H58.9403V7.864H53.4923V4.96H67.6763V7.864ZM76.9671 12.208C75.9911 12.224 75.1191 12.416 74.3511 12.784C73.5831 13.136 73.0311 13.672 72.6951 14.392V22H69.4791V9.424H72.4311V12.112C72.8631 11.248 73.4231 10.552 74.1111 10.024C74.8151 9.496 75.5511 9.232 76.3191 9.232C76.4951 9.232 76.6231 9.24 76.7031 9.256C76.7991 9.256 76.8871 9.264 76.9671 9.28V12.208ZM82.0288 22.24C81.4208 22.24 80.8528 22.144 80.3248 21.952C79.7968 21.744 79.3408 21.464 78.9568 21.112C78.5728 20.744 78.2688 20.32 78.0448 19.84C77.8368 19.36 77.7328 18.832 77.7328 18.256C77.7328 17.664 77.8608 17.12 78.1168 16.624C78.3888 16.112 78.7568 15.68 79.2208 15.328C79.7008 14.976 80.2688 14.704 80.9248 14.512C81.5808 14.304 82.3008 14.2 83.0848 14.2C83.6448 14.2 84.1888 14.248 84.7168 14.344C85.2608 14.44 85.7408 14.576 86.1568 14.752V14.032C86.1568 13.2 85.9168 12.56 85.4368 12.112C84.9728 11.664 84.2768 11.44 83.3488 11.44C82.6768 11.44 82.0208 11.56 81.3808 11.8C80.7408 12.04 80.0848 12.392 79.4128 12.856L78.4288 10.816C80.0448 9.744 81.7888 9.208 83.6608 9.208C85.4688 9.208 86.8688 9.656 87.8608 10.552C88.8688 11.432 89.3728 12.712 89.3728 14.392V18.304C89.3728 18.64 89.4368 18.88 89.5648 19.024C89.6928 19.168 89.9168 19.248 90.2368 19.264V22C89.9328 22.064 89.6448 22.104 89.3728 22.12C89.1168 22.152 88.8928 22.168 88.7008 22.168C88.0928 22.152 87.6288 22.016 87.3088 21.76C86.9888 21.488 86.7888 21.128 86.7088 20.68L86.6368 19.984C86.0768 20.72 85.3968 21.28 84.5968 21.664C83.7968 22.048 82.9408 22.24 82.0288 22.24ZM82.9408 19.888C83.4848 19.888 83.9968 19.792 84.4768 19.6C84.9728 19.408 85.3568 19.152 85.6288 18.832C85.9808 18.56 86.1568 18.256 86.1568 17.92V16.48C85.7728 16.336 85.3568 16.224 84.9088 16.144C84.4608 16.048 84.0288 16 83.6128 16C82.7808 16 82.1008 16.192 81.5728 16.576C81.0448 16.944 80.7808 17.416 80.7808 17.992C80.7808 18.536 80.9888 18.992 81.4048 19.36C81.8208 19.712 82.3328 19.888 82.9408 19.888ZM91.6798 15.712C91.6798 14.832 91.8318 14 92.1358 13.216C92.4398 12.432 92.8798 11.744 93.4558 11.152C94.0318 10.56 94.7278 10.088 95.5438 9.736C96.3598 9.384 97.2798 9.208 98.3038 9.208C99.6798 9.208 100.848 9.504 101.808 10.096C102.784 10.688 103.512 11.464 103.992 12.424L100.848 13.384C100.576 12.92 100.216 12.568 99.7678 12.328C99.3198 12.072 98.8238 11.944 98.2798 11.944C97.8158 11.944 97.3838 12.04 96.9838 12.232C96.5838 12.408 96.2318 12.664 95.9278 13C95.6398 13.32 95.4078 13.712 95.2318 14.176C95.0718 14.64 94.9918 15.152 94.9918 15.712C94.9918 16.272 95.0798 16.784 95.2558 17.248C95.4318 17.712 95.6638 18.112 95.9518 18.448C96.2558 18.784 96.6078 19.048 97.0078 19.24C97.4078 19.416 97.8318 19.504 98.2798 19.504C98.8558 19.504 99.3838 19.36 99.8638 19.072C100.36 18.784 100.704 18.432 100.896 18.016L104.04 18.976C103.608 19.936 102.896 20.72 101.904 21.328C100.912 21.936 99.7198 22.24 98.3278 22.24C97.3038 22.24 96.3838 22.064 95.5678 21.712C94.7518 21.36 94.0558 20.888 93.4798 20.296C92.9038 19.688 92.4558 18.992 92.1358 18.208C91.8318 17.408 91.6798 16.576 91.6798 15.712ZM114.587 22L110.939 16.552L109.211 18.256V22H105.995V4.48H109.211V15.112L114.251 9.448H117.683L112.979 14.776L118.019 22H114.587Z" fill="#00756A"/>
<path d="M122.16 22.46C122.82 22.57 123.345 22.87 123.735 23.36C124.135 23.85 124.335 24.455 124.335 25.175C124.335 25.625 124.25 26.035 124.08 26.405C123.92 26.785 123.685 27.105 123.375 27.365C123.075 27.635 122.71 27.84 122.28 27.98C121.86 28.13 121.39 28.205 120.87 28.205C120.11 28.205 119.445 28.05 118.875 27.74C118.305 27.44 117.875 27.02 117.585 26.48L118.29 25.835C118.5 26.275 118.82 26.625 119.25 26.885C119.68 27.145 120.22 27.275 120.87 27.275C121.62 27.275 122.21 27.09 122.64 26.72C123.07 26.36 123.285 25.84 123.285 25.16C123.285 24.47 123.06 23.925 122.61 23.525C122.16 23.125 121.51 22.925 120.66 22.925H120.285V22.055H120.69C121.46 22.055 122.05 21.875 122.46 21.515C122.87 21.155 123.075 20.69 123.075 20.12C123.075 19.82 123.02 19.56 122.91 19.34C122.8 19.11 122.645 18.92 122.445 18.77C122.255 18.61 122.025 18.49 121.755 18.41C121.495 18.33 121.21 18.29 120.9 18.29C120.33 18.29 119.825 18.42 119.385 18.68C118.955 18.93 118.63 19.28 118.41 19.73L117.75 19.1C117.87 18.84 118.04 18.605 118.26 18.395C118.48 18.175 118.73 17.99 119.01 17.84C119.29 17.69 119.6 17.575 119.94 17.495C120.28 17.405 120.63 17.36 120.99 17.36C121.45 17.36 121.87 17.425 122.25 17.555C122.64 17.685 122.975 17.87 123.255 18.11C123.535 18.34 123.75 18.62 123.9 18.95C124.06 19.28 124.14 19.645 124.14 20.045C124.14 20.345 124.095 20.635 124.005 20.915C123.915 21.185 123.785 21.43 123.615 21.65C123.445 21.86 123.235 22.04 122.985 22.19C122.745 22.33 122.47 22.42 122.16 22.46ZM133.457 22.49C133.457 23 133.357 23.48 133.157 23.93C132.967 24.37 132.702 24.755 132.362 25.085C132.032 25.415 131.637 25.675 131.177 25.865C130.717 26.055 130.222 26.15 129.692 26.15C129.132 26.15 128.617 26.05 128.147 25.85C127.677 25.64 127.272 25.345 126.932 24.965C126.592 24.585 126.327 24.12 126.137 23.57C125.957 23.01 125.867 22.385 125.867 21.695C125.867 20.615 125.962 19.675 126.152 18.875C126.342 18.065 126.607 17.395 126.947 16.865C127.297 16.325 127.712 15.925 128.192 15.665C128.672 15.405 129.207 15.275 129.797 15.275C130.497 15.275 131.127 15.45 131.687 15.8C132.247 16.15 132.672 16.635 132.962 17.255L132.302 17.855C132.102 17.345 131.772 16.94 131.312 16.64C130.852 16.33 130.342 16.175 129.782 16.175C129.342 16.175 128.942 16.28 128.582 16.49C128.222 16.7 127.912 17.005 127.652 17.405C127.402 17.795 127.202 18.28 127.052 18.86C126.912 19.44 126.842 20.095 126.842 20.825C127.062 20.235 127.437 19.765 127.967 19.415C128.507 19.065 129.117 18.89 129.797 18.89C130.307 18.89 130.782 18.985 131.222 19.175C131.672 19.355 132.062 19.61 132.392 19.94C132.722 20.26 132.982 20.64 133.172 21.08C133.362 21.52 133.457 21.99 133.457 22.49ZM129.707 25.25C130.087 25.25 130.442 25.18 130.772 25.04C131.112 24.89 131.407 24.69 131.657 24.44C131.917 24.19 132.117 23.9 132.257 23.57C132.407 23.23 132.482 22.87 132.482 22.49C132.482 22.11 132.407 21.755 132.257 21.425C132.107 21.085 131.907 20.79 131.657 20.54C131.407 20.29 131.112 20.095 130.772 19.955C130.432 19.805 130.077 19.73 129.707 19.73C129.327 19.73 128.967 19.805 128.627 19.955C128.287 20.095 127.987 20.29 127.727 20.54C127.477 20.79 127.277 21.085 127.127 21.425C126.987 21.755 126.917 22.11 126.917 22.49C126.917 22.87 126.992 23.225 127.142 23.555C127.292 23.885 127.492 24.18 127.742 24.44C128.002 24.69 128.297 24.89 128.627 25.04C128.967 25.18 129.327 25.25 129.707 25.25ZM142.524 21.605C142.524 22.265 142.429 22.875 142.239 23.435C142.049 23.985 141.784 24.465 141.444 24.875C141.114 25.275 140.719 25.59 140.259 25.82C139.799 26.04 139.299 26.15 138.759 26.15C138.219 26.15 137.719 26.04 137.259 25.82C136.799 25.59 136.399 25.275 136.059 24.875C135.729 24.465 135.469 23.985 135.279 23.435C135.089 22.875 134.994 22.265 134.994 21.605C134.994 20.945 135.089 20.34 135.279 19.79C135.469 19.23 135.729 18.75 136.059 18.35C136.399 17.94 136.799 17.62 137.259 17.39C137.719 17.16 138.219 17.045 138.759 17.045C139.299 17.045 139.799 17.16 140.259 17.39C140.719 17.62 141.114 17.94 141.444 18.35C141.784 18.75 142.049 19.23 142.239 19.79C142.429 20.34 142.524 20.945 142.524 21.605ZM141.489 21.605C141.489 21.065 141.419 20.575 141.279 20.135C141.149 19.695 140.964 19.32 140.724 19.01C140.484 18.69 140.194 18.445 139.854 18.275C139.524 18.095 139.159 18.005 138.759 18.005C138.349 18.005 137.974 18.095 137.634 18.275C137.304 18.445 137.019 18.69 136.779 19.01C136.539 19.32 136.349 19.695 136.209 20.135C136.079 20.575 136.014 21.065 136.014 21.605C136.014 22.145 136.079 22.635 136.209 23.075C136.349 23.515 136.539 23.895 136.779 24.215C137.019 24.525 137.304 24.765 137.634 24.935C137.974 25.105 138.349 25.19 138.759 25.19C139.159 25.19 139.524 25.105 139.854 24.935C140.194 24.765 140.484 24.525 140.724 24.215C140.964 23.895 141.149 23.515 141.279 23.075C141.419 22.635 141.489 22.145 141.489 21.605Z" fill="#F47416"/>
</svg>
