<svg width="225" height="42" viewBox="0 0 225 42" fill="none" xmlns="http://www.w3.org/2000/svg">
<path d="M11.928 9.424C11.816 9.312 11.608 9.16 11.304 8.968C11.016 8.776 10.656 8.592 10.224 8.416C9.808 8.24 9.352 8.088 8.856 7.96C8.36 7.816 7.856 7.744 7.344 7.744C6.448 7.744 5.768 7.912 5.304 8.248C4.856 8.584 4.632 9.056 4.632 9.664C4.632 10.128 4.776 10.496 5.064 10.768C5.352 11.04 5.784 11.272 6.36 11.464C6.936 11.656 7.656 11.864 8.52 12.088C9.64 12.36 10.608 12.696 11.424 13.096C12.256 13.48 12.888 13.992 13.32 14.632C13.768 15.256 13.992 16.088 13.992 17.128C13.992 18.04 13.824 18.824 13.488 19.48C13.152 20.12 12.688 20.64 12.096 21.04C11.504 21.44 10.832 21.736 10.08 21.928C9.328 22.104 8.528 22.192 7.68 22.192C6.832 22.192 5.984 22.104 5.136 21.928C4.288 21.752 3.472 21.504 2.688 21.184C1.904 20.848 1.184 20.448 0.528 19.984L1.992 17.128C2.136 17.272 2.392 17.464 2.76 17.704C3.128 17.928 3.576 18.16 4.104 18.4C4.632 18.624 5.208 18.816 5.832 18.976C6.456 19.136 7.088 19.216 7.728 19.216C8.624 19.216 9.304 19.064 9.768 18.76C10.232 18.456 10.464 18.024 10.464 17.464C10.464 16.952 10.28 16.552 9.912 16.264C9.544 15.976 9.032 15.728 8.376 15.52C7.72 15.296 6.944 15.056 6.048 14.8C4.976 14.496 4.08 14.16 3.36 13.792C2.64 13.408 2.104 12.928 1.752 12.352C1.4 11.776 1.224 11.056 1.224 10.192C1.224 9.024 1.496 8.048 2.04 7.264C2.6 6.464 3.352 5.864 4.296 5.464C5.24 5.048 6.288 4.84 7.44 4.84C8.24 4.84 8.992 4.928 9.696 5.104C10.416 5.28 11.088 5.512 11.712 5.8C12.336 6.088 12.896 6.4 13.392 6.736L11.928 9.424ZM23.4375 21.352C23.1655 21.464 22.8375 21.592 22.4535 21.736C22.0695 21.88 21.6535 21.992 21.2055 22.072C20.7735 22.168 20.3335 22.216 19.8855 22.216C19.2935 22.216 18.7495 22.112 18.2535 21.904C17.7575 21.696 17.3575 21.368 17.0535 20.92C16.7655 20.456 16.6215 19.856 16.6215 19.12V11.896H14.9655V9.424H16.6215V5.344H19.8375V9.424H22.4775V11.896H19.8375V18.04C19.8535 18.472 19.9735 18.784 20.1975 18.976C20.4215 19.168 20.7015 19.264 21.0375 19.264C21.3735 19.264 21.7015 19.208 22.0215 19.096C22.3415 18.984 22.5975 18.888 22.7895 18.808L23.4375 21.352ZM24.2484 18.28C24.2484 17.464 24.4724 16.752 24.9204 16.144C25.3844 15.52 26.0244 15.04 26.8404 14.704C27.6564 14.368 28.5924 14.2 29.6484 14.2C30.1764 14.2 30.7124 14.24 31.2564 14.32C31.8004 14.4 32.2724 14.528 32.6724 14.704V14.032C32.6724 13.232 32.4324 12.616 31.9524 12.184C31.4884 11.752 30.7924 11.536 29.8644 11.536C29.1764 11.536 28.5204 11.656 27.8964 11.896C27.2724 12.136 26.6164 12.488 25.9284 12.952L24.8964 10.84C25.7284 10.296 26.5764 9.888 27.4404 9.616C28.3204 9.344 29.2404 9.208 30.2004 9.208C31.9924 9.208 33.3844 9.656 34.3764 10.552C35.3844 11.448 35.8884 12.728 35.8884 14.392V18.4C35.8884 18.736 35.9444 18.976 36.0564 19.12C36.1844 19.264 36.3844 19.352 36.6564 19.384V22C36.3684 22.048 36.1044 22.088 35.8644 22.12C35.6404 22.152 35.4484 22.168 35.2884 22.168C34.6484 22.168 34.1604 22.024 33.8244 21.736C33.5044 21.448 33.3044 21.096 33.2244 20.68L33.1524 20.032C32.6084 20.736 31.9284 21.28 31.1124 21.664C30.2964 22.048 29.4644 22.24 28.6164 22.24C27.7844 22.24 27.0324 22.072 26.3604 21.736C25.7044 21.384 25.1844 20.912 24.8004 20.32C24.4324 19.712 24.2484 19.032 24.2484 18.28ZM32.0724 18.928C32.2484 18.736 32.3924 18.544 32.5044 18.352C32.6164 18.16 32.6724 17.984 32.6724 17.824V16.552C32.2884 16.392 31.8724 16.272 31.4244 16.192C30.9764 16.096 30.5524 16.048 30.1524 16.048C29.3204 16.048 28.6324 16.232 28.0884 16.6C27.5604 16.952 27.2964 17.424 27.2964 18.016C27.2964 18.336 27.3844 18.64 27.5604 18.928C27.7364 19.216 27.9924 19.448 28.3284 19.624C28.6644 19.8 29.0644 19.888 29.5284 19.888C30.0084 19.888 30.4804 19.8 30.9444 19.624C31.4084 19.432 31.7844 19.2 32.0724 18.928ZM39.6148 22V12.544H37.9588V10.096H39.6148V9.784C39.6148 8.904 39.7908 8.112 40.1428 7.408C40.4948 6.704 40.9908 6.144 41.6308 5.728C42.2868 5.312 43.0628 5.104 43.9588 5.104C44.5508 5.104 45.1188 5.184 45.6628 5.344C46.2068 5.488 46.7668 5.688 47.3428 5.944L46.6708 8.392C46.3188 8.2 45.9668 8.064 45.6148 7.984C45.2628 7.888 44.9268 7.84 44.6068 7.84C44.3188 7.84 44.0628 7.888 43.8388 7.984C43.6148 8.08 43.4228 8.216 43.2628 8.392C43.1188 8.552 43.0068 8.744 42.9268 8.968C42.8628 9.192 42.8308 9.424 42.8308 9.664V10.096H45.9028V12.544H42.8308V22H39.6148ZM45.9028 22V12.544H44.2468V10.096H45.9028V9.328C45.9028 8.288 46.0708 7.392 46.4068 6.64C46.7588 5.872 47.2468 5.28 47.8708 4.864C48.5108 4.448 49.2548 4.24 50.1028 4.24C50.6148 4.24 51.1268 4.304 51.6388 4.432C52.1668 4.56 52.6868 4.744 53.1988 4.984L52.5508 7.408C52.3108 7.28 52.0308 7.176 51.7108 7.096C51.3908 7 51.0868 6.952 50.7988 6.952C50.2548 6.952 49.8388 7.144 49.5508 7.528C49.2628 7.912 49.1188 8.472 49.1188 9.208V10.096H52.1908V12.544H49.1188V22H45.9028ZM68.3325 7.864H62.8845V22H59.5965V7.864H54.1485V4.96H68.3325V7.864ZM76.4286 12.208C75.4526 12.208 74.5806 12.4 73.8126 12.784C73.0446 13.152 72.4926 13.688 72.1566 14.392V22H68.9406V9.424H71.8926V12.112C72.3406 11.248 72.9086 10.568 73.5966 10.072C74.2846 9.576 75.0126 9.304 75.7806 9.256C75.9566 9.256 76.0926 9.256 76.1886 9.256C76.2846 9.256 76.3646 9.264 76.4286 9.28V12.208ZM77.2875 18.28C77.2875 17.464 77.5115 16.752 77.9595 16.144C78.4235 15.52 79.0635 15.04 79.8795 14.704C80.6955 14.368 81.6315 14.2 82.6875 14.2C83.2155 14.2 83.7515 14.24 84.2955 14.32C84.8395 14.4 85.3115 14.528 85.7115 14.704V14.032C85.7115 13.232 85.4715 12.616 84.9915 12.184C84.5275 11.752 83.8315 11.536 82.9035 11.536C82.2155 11.536 81.5595 11.656 80.9355 11.896C80.3115 12.136 79.6555 12.488 78.9675 12.952L77.9355 10.84C78.7675 10.296 79.6155 9.888 80.4795 9.616C81.3595 9.344 82.2795 9.208 83.2395 9.208C85.0315 9.208 86.4235 9.656 87.4155 10.552C88.4235 11.448 88.9275 12.728 88.9275 14.392V18.4C88.9275 18.736 88.9835 18.976 89.0955 19.12C89.2235 19.264 89.4235 19.352 89.6955 19.384V22C89.4075 22.048 89.1435 22.088 88.9035 22.12C88.6795 22.152 88.4875 22.168 88.3275 22.168C87.6875 22.168 87.1995 22.024 86.8635 21.736C86.5435 21.448 86.3435 21.096 86.2635 20.68L86.1915 20.032C85.6475 20.736 84.9675 21.28 84.1515 21.664C83.3355 22.048 82.5035 22.24 81.6555 22.24C80.8235 22.24 80.0715 22.072 79.3995 21.736C78.7435 21.384 78.2235 20.912 77.8395 20.32C77.4715 19.712 77.2875 19.032 77.2875 18.28ZM85.1115 18.928C85.2875 18.736 85.4315 18.544 85.5435 18.352C85.6555 18.16 85.7115 17.984 85.7115 17.824V16.552C85.3275 16.392 84.9115 16.272 84.4635 16.192C84.0155 16.096 83.5915 16.048 83.1915 16.048C82.3595 16.048 81.6715 16.232 81.1275 16.6C80.5995 16.952 80.3355 17.424 80.3355 18.016C80.3355 18.336 80.4235 18.64 80.5995 18.928C80.7755 19.216 81.0315 19.448 81.3675 19.624C81.7035 19.8 82.1035 19.888 82.5675 19.888C83.0475 19.888 83.5195 19.8 83.9835 19.624C84.4475 19.432 84.8235 19.2 85.1115 18.928ZM97.7888 22.24C96.7648 22.24 95.8448 22.072 95.0288 21.736C94.2128 21.384 93.5168 20.904 92.9408 20.296C92.3648 19.672 91.9168 18.968 91.5968 18.184C91.2928 17.4 91.1408 16.576 91.1408 15.712C91.1408 14.528 91.4048 13.448 91.9328 12.472C92.4768 11.48 93.2448 10.688 94.2368 10.096C95.2288 9.504 96.4048 9.208 97.7648 9.208C99.1248 9.208 100.293 9.504 101.269 10.096C102.245 10.688 102.973 11.464 103.453 12.424L100.309 13.384C100.037 12.92 99.6768 12.568 99.2288 12.328C98.7808 12.072 98.2848 11.944 97.7408 11.944C97.1328 11.944 96.5728 12.104 96.0608 12.424C95.5648 12.728 95.1728 13.168 94.8848 13.744C94.5968 14.304 94.4528 14.96 94.4528 15.712C94.4528 16.448 94.5968 17.104 94.8848 17.68C95.1888 18.24 95.5888 18.688 96.0848 19.024C96.5808 19.344 97.1328 19.504 97.7408 19.504C98.1248 19.504 98.4848 19.44 98.8208 19.312C99.1728 19.184 99.4848 19.008 99.7568 18.784C100.029 18.56 100.229 18.304 100.357 18.016L103.501 18.976C103.213 19.6 102.789 20.16 102.229 20.656C101.685 21.152 101.037 21.544 100.285 21.832C99.5488 22.104 98.7168 22.24 97.7888 22.24ZM114.072 22L110.4 16.576L108.696 18.256V22H105.48V4.48H108.696V15.088L113.76 9.448H117.168L112.488 14.776L117.504 22H114.072Z" fill="white"/>
<path d="M122.145 22.46C122.595 22.53 122.98 22.69 123.3 22.94C123.62 23.19 123.87 23.505 124.05 23.885C124.23 24.265 124.32 24.695 124.32 25.175C124.32 25.775 124.175 26.305 123.885 26.765C123.595 27.225 123.19 27.58 122.67 27.83C122.15 28.08 121.545 28.205 120.855 28.205C120.095 28.205 119.43 28.05 118.86 27.74C118.29 27.44 117.86 27.02 117.57 26.48L118.275 25.835C118.495 26.265 118.82 26.61 119.25 26.87C119.68 27.14 120.215 27.275 120.855 27.275C121.595 27.275 122.18 27.09 122.61 26.72C123.05 26.36 123.27 25.84 123.27 25.16C123.27 24.48 123.04 23.94 122.58 23.54C122.13 23.13 121.485 22.925 120.645 22.925H120.27V22.055H120.675C121.445 22.055 122.035 21.875 122.445 21.515C122.855 21.155 123.06 20.695 123.06 20.135C123.06 19.725 122.965 19.385 122.775 19.115C122.585 18.845 122.325 18.64 121.995 18.5C121.675 18.36 121.305 18.29 120.885 18.29C120.315 18.29 119.81 18.42 119.37 18.68C118.94 18.93 118.615 19.28 118.395 19.73L117.735 19.1C117.905 18.75 118.15 18.445 118.47 18.185C118.79 17.925 119.165 17.725 119.595 17.585C120.025 17.435 120.485 17.36 120.975 17.36C121.595 17.36 122.14 17.475 122.61 17.705C123.08 17.925 123.45 18.235 123.72 18.635C123.99 19.035 124.125 19.505 124.125 20.045C124.125 20.445 124.045 20.815 123.885 21.155C123.725 21.495 123.495 21.78 123.195 22.01C122.905 22.24 122.555 22.39 122.145 22.46ZM133.398 22.49C133.398 23.16 133.228 23.775 132.888 24.335C132.558 24.885 132.108 25.325 131.538 25.655C130.968 25.985 130.328 26.15 129.618 26.15C128.878 26.15 128.218 25.975 127.638 25.625C127.068 25.265 126.618 24.75 126.288 24.08C125.958 23.41 125.793 22.615 125.793 21.695C125.793 20.245 125.958 19.05 126.288 18.11C126.618 17.16 127.078 16.45 127.668 15.98C128.258 15.51 128.943 15.275 129.723 15.275C130.433 15.275 131.068 15.455 131.628 15.815C132.188 16.165 132.613 16.645 132.903 17.255L132.243 17.855C132.033 17.345 131.698 16.94 131.238 16.64C130.788 16.33 130.283 16.175 129.723 16.175C129.133 16.175 128.618 16.36 128.178 16.73C127.738 17.1 127.393 17.63 127.143 18.32C126.903 19.01 126.783 19.845 126.783 20.825C126.933 20.435 127.153 20.095 127.443 19.805C127.733 19.515 128.073 19.29 128.463 19.13C128.863 18.97 129.288 18.89 129.738 18.89C130.418 18.89 131.033 19.05 131.583 19.37C132.143 19.69 132.583 20.125 132.903 20.675C133.233 21.215 133.398 21.82 133.398 22.49ZM129.648 25.25C130.148 25.25 130.608 25.125 131.028 24.875C131.448 24.625 131.783 24.29 132.033 23.87C132.293 23.45 132.423 22.99 132.423 22.49C132.423 21.99 132.293 21.53 132.033 21.11C131.783 20.69 131.448 20.355 131.028 20.105C130.608 19.855 130.148 19.73 129.648 19.73C129.138 19.73 128.668 19.855 128.238 20.105C127.818 20.355 127.483 20.69 127.233 21.11C126.983 21.52 126.858 21.98 126.858 22.49C126.858 22.99 126.983 23.45 127.233 23.87C127.493 24.29 127.833 24.625 128.253 24.875C128.673 25.125 129.138 25.25 129.648 25.25ZM142.406 21.605C142.406 22.485 142.241 23.27 141.911 23.96C141.591 24.64 141.146 25.175 140.576 25.565C140.006 25.955 139.361 26.15 138.641 26.15C137.921 26.15 137.276 25.955 136.706 25.565C136.146 25.175 135.701 24.64 135.371 23.96C135.041 23.27 134.876 22.485 134.876 21.605C134.876 20.725 135.041 19.945 135.371 19.265C135.701 18.575 136.146 18.035 136.706 17.645C137.276 17.245 137.921 17.045 138.641 17.045C139.361 17.045 140.006 17.245 140.576 17.645C141.146 18.035 141.591 18.575 141.911 19.265C142.241 19.945 142.406 20.725 142.406 21.605ZM141.371 21.605C141.371 20.895 141.256 20.27 141.026 19.73C140.796 19.19 140.476 18.77 140.066 18.47C139.656 18.16 139.181 18.005 138.641 18.005C138.101 18.005 137.626 18.16 137.216 18.47C136.806 18.77 136.481 19.19 136.241 19.73C136.011 20.27 135.896 20.895 135.896 21.605C135.896 22.315 136.011 22.94 136.241 23.48C136.481 24.02 136.806 24.44 137.216 24.74C137.626 25.04 138.101 25.19 138.641 25.19C139.181 25.19 139.656 25.04 140.066 24.74C140.476 24.43 140.796 24.01 141.026 23.48C141.256 22.94 141.371 22.315 141.371 21.605Z" fill="#F47416"/>
<path d="M122.145 22.46L122.061 21.9671L122.068 22.9541L122.145 22.46ZM124.05 23.885L123.598 24.099L124.05 23.885ZM123.885 26.765L124.308 27.0317L123.885 26.765ZM122.67 27.83L122.887 28.2806H122.887L122.67 27.83ZM118.86 27.74L119.099 27.3007L119.093 27.2975L118.86 27.74ZM117.57 26.48L117.232 26.1111L116.945 26.3738L117.13 26.7166L117.57 26.48ZM118.275 25.835L118.72 25.6073L118.421 25.0234L117.937 25.4661L118.275 25.835ZM119.25 26.87L119.516 26.4465L119.509 26.4421L119.25 26.87ZM122.61 26.72L122.293 26.3329L122.284 26.341L122.61 26.72ZM122.58 23.54L122.243 23.9097L122.252 23.9173L122.58 23.54ZM120.27 22.925H119.77V23.425H120.27V22.925ZM120.27 22.055V21.555H119.77V22.055H120.27ZM122.445 21.515L122.115 21.1393L122.445 21.515ZM121.995 18.5L121.795 18.9581L121.8 18.9603L121.995 18.5ZM119.37 18.68L119.621 19.1123L119.624 19.1105L119.37 18.68ZM118.395 19.73L118.05 20.0917L118.544 20.5635L118.844 19.9496L118.395 19.73ZM117.735 19.1L117.285 18.8815L117.126 19.2097L117.39 19.4617L117.735 19.1ZM118.47 18.185L118.785 18.5731H118.785L118.47 18.185ZM119.595 17.585L119.75 18.0605L119.76 18.0571L119.595 17.585ZM122.61 17.705L122.39 18.1542L122.398 18.1578L122.61 17.705ZM123.72 18.635L123.306 18.9147V18.9147L123.72 18.635ZM123.195 22.01L122.891 21.6131L122.884 21.6183L123.195 22.01ZM122.068 22.9541C122.444 23.0126 122.747 23.1426 122.992 23.334L123.608 22.546C123.213 22.2374 122.746 22.0474 122.222 21.9659L122.068 22.9541ZM122.992 23.334C123.249 23.5343 123.45 23.7869 123.598 24.099L124.502 23.671C124.29 23.2231 123.991 22.8457 123.608 22.546L122.992 23.334ZM123.598 24.099C123.742 24.4033 123.82 24.7585 123.82 25.175H124.82C124.82 24.6315 124.718 24.1267 124.502 23.671L123.598 24.099ZM123.82 25.175C123.82 25.6907 123.697 26.1263 123.462 26.4983L124.308 27.0317C124.653 26.4837 124.82 25.8593 124.82 25.175H123.82ZM123.462 26.4983C123.225 26.8739 122.894 27.1675 122.453 27.3794L122.887 28.2806C123.486 27.9925 123.965 27.5761 124.308 27.0317L123.462 26.4983ZM122.453 27.3794C122.013 27.5911 121.485 27.705 120.855 27.705V28.705C121.605 28.705 122.287 28.5689 122.887 28.2806L122.453 27.3794ZM120.855 27.705C120.164 27.705 119.584 27.5646 119.099 27.3008L118.621 28.1792C119.276 28.5354 120.026 28.705 120.855 28.705V27.705ZM119.093 27.2975C118.606 27.0415 118.251 26.691 118.01 26.2434L117.13 26.7166C117.469 27.349 117.974 27.8385 118.627 28.1825L119.093 27.2975ZM117.908 26.8489L118.613 26.2039L117.937 25.4661L117.232 26.1111L117.908 26.8489ZM117.83 26.0627C118.094 26.5789 118.485 26.9918 118.991 27.2979L119.509 26.4421C119.155 26.2282 118.896 25.9511 118.72 25.6073L117.83 26.0627ZM118.984 27.2934C119.512 27.625 120.145 27.775 120.855 27.775V26.775C120.285 26.775 119.848 26.655 119.516 26.4466L118.984 27.2934ZM120.855 27.775C121.678 27.775 122.391 27.5683 122.936 27.099L122.284 26.341C121.969 26.6117 121.512 26.775 120.855 26.775V27.775ZM122.927 27.107C123.506 26.6331 123.77 25.9574 123.77 25.16H122.77C122.77 25.7226 122.594 26.0869 122.293 26.333L122.927 27.107ZM123.77 25.16C123.77 24.354 123.491 23.6693 122.908 23.1627L122.252 23.9173C122.589 24.2107 122.77 24.606 122.77 25.16H123.77ZM122.917 23.1704C122.345 22.6492 121.562 22.425 120.645 22.425V23.425C121.408 23.425 121.915 23.6108 122.243 23.9096L122.917 23.1704ZM120.645 22.425H120.27V23.425H120.645V22.425ZM120.77 22.925V22.055H119.77V22.925H120.77ZM120.27 22.555H120.675V21.555H120.27V22.555ZM120.675 22.555C121.517 22.555 122.242 22.3584 122.775 21.8907L122.115 21.1393C121.828 21.3916 121.373 21.555 120.675 21.555V22.555ZM122.775 21.8907C123.296 21.433 123.56 20.8345 123.56 20.135H122.56C122.56 20.5555 122.414 20.877 122.115 21.1393L122.775 21.8907ZM123.56 20.135C123.56 19.6471 123.446 19.2 123.184 18.8273L122.366 19.4027C122.484 19.57 122.56 19.8029 122.56 20.135H123.56ZM123.184 18.8273C122.936 18.4744 122.599 18.2129 122.19 18.0397L121.8 18.9603C122.051 19.0671 122.234 19.2156 122.366 19.4027L123.184 18.8273ZM122.195 18.0419C121.801 17.8693 121.36 17.79 120.885 17.79V18.79C121.25 18.79 121.549 18.8507 121.795 18.9581L122.195 18.0419ZM120.885 17.79C120.236 17.79 119.641 17.9389 119.116 18.2495L119.624 19.1105C119.979 18.9011 120.394 18.79 120.885 18.79V17.79ZM119.119 18.2477C118.602 18.5479 118.209 18.9722 117.946 19.5104L118.844 19.9496C119.021 19.5878 119.278 19.3121 119.621 19.1123L119.119 18.2477ZM118.74 19.3683L118.08 18.7383L117.39 19.4617L118.05 20.0917L118.74 19.3683ZM118.185 19.3185C118.321 19.038 118.519 18.7898 118.785 18.5731L118.155 17.7969C117.781 18.1002 117.489 18.462 117.285 18.8815L118.185 19.3185ZM118.785 18.5731C119.053 18.3554 119.373 18.1833 119.75 18.0604L119.44 17.1096C118.957 17.2667 118.527 17.4946 118.155 17.7969L118.785 18.5731ZM119.76 18.0571C120.133 17.9269 120.537 17.86 120.975 17.86V16.86C120.433 16.86 119.917 16.9431 119.43 17.1129L119.76 18.0571ZM120.975 17.86C121.533 17.86 122 17.9632 122.39 18.1541L122.83 17.2559C122.28 16.9868 121.657 16.86 120.975 16.86V17.86ZM122.398 18.1578C122.793 18.3425 123.09 18.5953 123.306 18.9147L124.134 18.3553C123.81 17.8747 123.367 17.5075 122.822 17.2522L122.398 18.1578ZM123.306 18.9147C123.513 19.2225 123.625 19.5924 123.625 20.045H124.625C124.625 19.4176 124.467 18.8475 124.134 18.3553L123.306 18.9147ZM123.625 20.045C123.625 20.3762 123.559 20.6729 123.433 20.9421L124.337 21.3679C124.531 20.9571 124.625 20.5138 124.625 20.045H123.625ZM123.433 20.9421C123.307 21.2094 123.128 21.4315 122.891 21.6132L123.499 22.4068C123.862 22.1285 124.143 21.7806 124.337 21.3679L123.433 20.9421ZM122.884 21.6183C122.668 21.7899 122.398 21.9095 122.061 21.9671L122.229 22.9529C122.712 22.8705 123.142 22.6901 123.506 22.4017L122.884 21.6183ZM132.888 24.335L132.46 24.0755L132.459 24.0778L132.888 24.335ZM131.538 25.655L131.788 26.0877L131.538 25.655ZM127.638 25.625L127.371 26.0478L127.379 26.0531L127.638 25.625ZM126.288 24.08L125.839 24.3009L126.288 24.08ZM126.288 18.11L126.759 18.2756L126.76 18.2741L126.288 18.11ZM127.668 15.98L127.356 15.5889L127.668 15.98ZM131.628 15.815L131.357 16.2356L131.363 16.239L131.628 15.815ZM132.903 17.255L133.239 17.625L133.514 17.3754L133.354 17.0403L132.903 17.255ZM132.243 17.855L131.78 18.0454L132.052 18.7044L132.579 18.225L132.243 17.855ZM131.238 16.64L130.954 17.0519L130.965 17.0588L131.238 16.64ZM128.178 16.73L127.856 16.3473H127.856L128.178 16.73ZM127.143 18.32L126.673 18.1497L126.67 18.1557L127.143 18.32ZM126.783 20.825H126.283L127.249 21.0045L126.783 20.825ZM127.443 19.805L127.089 19.4514L127.443 19.805ZM128.463 19.13L128.277 18.6657L128.273 18.6674L128.463 19.13ZM131.583 19.37L131.331 19.8022L131.335 19.8041L131.583 19.37ZM132.903 20.675L132.47 20.9265L132.476 20.9357L132.903 20.675ZM131.028 24.875L130.772 24.4454L131.028 24.875ZM132.033 23.87L131.607 23.6068L131.603 23.6143L132.033 23.87ZM132.033 21.11L131.603 21.3658L131.608 21.3732L132.033 21.11ZM131.028 20.105L130.772 20.5346L131.028 20.105ZM128.238 20.105L127.986 19.6727L127.982 19.6754L128.238 20.105ZM127.233 21.11L127.66 21.3703L127.662 21.3657L127.233 21.11ZM127.233 23.87L126.803 24.1258L126.808 24.1332L127.233 23.87ZM128.253 24.875L127.997 25.3046H127.997L128.253 24.875ZM132.898 22.49C132.898 23.0707 132.752 23.5956 132.46 24.0755L133.315 24.5945C133.704 23.9544 133.898 23.2493 133.898 22.49H132.898ZM132.459 24.0778C132.174 24.5531 131.786 24.9335 131.287 25.2223L131.788 26.0877C132.429 25.7165 132.942 25.2169 133.316 24.5922L132.459 24.0778ZM131.287 25.2223C130.799 25.5048 130.247 25.65 129.618 25.65V26.65C130.409 26.65 131.136 26.4652 131.788 26.0877L131.287 25.2223ZM129.618 25.65C128.96 25.65 128.391 25.4956 127.896 25.1969L127.379 26.0531C128.044 26.4544 128.795 26.65 129.618 26.65V25.65ZM127.905 25.2023C127.421 24.8967 127.03 24.4555 126.736 23.8591L125.839 24.3009C126.205 25.0445 126.714 25.6333 127.371 26.0477L127.905 25.2023ZM126.736 23.8591C126.447 23.2719 126.293 22.5558 126.293 21.695H125.293C125.293 22.6742 125.468 23.5481 125.839 24.3009L126.736 23.8591ZM126.293 21.695C126.293 20.2781 126.455 19.1441 126.759 18.2756L125.816 17.9444C125.461 18.9559 125.293 20.2119 125.293 21.695H126.293ZM126.76 18.2741C127.069 17.3844 127.484 16.7655 127.979 16.3711L127.356 15.5889C126.671 16.1345 126.166 16.9356 125.815 17.9459L126.76 18.2741ZM127.979 16.3711C128.478 15.9742 129.052 15.775 129.723 15.775V14.775C128.834 14.775 128.038 15.0458 127.356 15.5889L127.979 16.3711ZM129.723 15.775C130.343 15.775 130.883 15.9309 131.357 16.2356L131.898 15.3944C131.252 14.9791 130.522 14.775 129.723 14.775V15.775ZM131.363 16.239C131.84 16.5372 132.201 16.9437 132.451 17.4697L133.354 17.0403C133.024 16.3463 132.536 15.7928 131.893 15.391L131.363 16.239ZM132.566 16.885L131.906 17.485L132.579 18.225L133.239 17.625L132.566 16.885ZM132.705 17.6646C132.457 17.0615 132.056 16.5767 131.511 16.2212L130.965 17.0588C131.339 17.3033 131.609 17.6285 131.78 18.0454L132.705 17.6646ZM131.521 16.2282C130.986 15.8593 130.381 15.675 129.723 15.675V16.675C130.184 16.675 130.59 16.8007 130.954 17.0518L131.521 16.2282ZM129.723 15.675C129.018 15.675 128.389 15.8994 127.856 16.3473L128.499 17.1127C128.847 16.8206 129.247 16.675 129.723 16.675V15.675ZM127.856 16.3473C127.333 16.7874 126.944 17.3995 126.673 18.1497L127.613 18.4903C127.841 17.8605 128.143 17.4126 128.499 17.1127L127.856 16.3473ZM126.67 18.1557C126.407 18.9131 126.283 19.8069 126.283 20.825H127.283C127.283 19.8831 127.398 19.1069 127.615 18.4843L126.67 18.1557ZM127.249 21.0045C127.375 20.6785 127.557 20.3981 127.796 20.1586L127.089 19.4514C126.749 19.7919 126.491 20.1915 126.316 20.6455L127.249 21.0045ZM127.796 20.1586C128.038 19.9167 128.322 19.7282 128.652 19.5926L128.273 18.6674C127.823 18.8518 127.427 19.1133 127.089 19.4514L127.796 20.1586ZM128.648 19.5942C128.987 19.4589 129.348 19.39 129.738 19.39V18.39C129.227 18.39 128.739 18.4811 128.277 18.6658L128.648 19.5942ZM129.738 19.39C130.336 19.39 130.863 19.5297 131.331 19.8022L131.834 18.9378C131.203 18.5703 130.5 18.39 129.738 18.39V19.39ZM131.335 19.8041C131.819 20.0811 132.195 20.4536 132.471 20.9264L133.335 20.4236C132.97 19.7964 132.466 19.2989 131.831 18.9359L131.335 19.8041ZM132.476 20.9357C132.755 21.3925 132.898 21.9064 132.898 22.49H133.898C133.898 21.7336 133.71 21.0375 133.329 20.4143L132.476 20.9357ZM129.648 25.75C130.236 25.75 130.784 25.6018 131.283 25.3046L130.772 24.4454C130.431 24.6482 130.06 24.75 129.648 24.75V25.75ZM131.283 25.3046C131.775 25.0121 132.17 24.6173 132.462 24.1257L131.603 23.6143C131.396 23.9627 131.12 24.2379 130.772 24.4454L131.283 25.3046ZM132.458 24.1332C132.767 23.6331 132.923 23.0818 132.923 22.49H131.923C131.923 22.8982 131.818 23.2669 131.608 23.6068L132.458 24.1332ZM132.923 22.49C132.923 21.8982 132.767 21.3469 132.458 20.8468L131.608 21.3732C131.818 21.7131 131.923 22.0818 131.923 22.49H132.923ZM132.462 20.8543C132.17 20.3627 131.775 19.9679 131.283 19.6754L130.772 20.5346C131.12 20.7421 131.396 21.0173 131.603 21.3657L132.462 20.8543ZM131.283 19.6754C130.784 19.3782 130.236 19.23 129.648 19.23V20.23C130.06 20.23 130.431 20.3318 130.772 20.5346L131.283 19.6754ZM129.648 19.23C129.052 19.23 128.495 19.3772 127.986 19.6727L128.489 20.5373C128.841 20.3328 129.224 20.23 129.648 20.23V19.23ZM127.982 19.6754C127.49 19.9679 127.096 20.3627 126.803 20.8543L127.662 21.3657C127.87 21.0173 128.145 20.7421 128.493 20.5346L127.982 19.6754ZM126.806 20.8497C126.505 21.343 126.358 21.8941 126.358 22.49H127.358C127.358 22.0659 127.46 21.697 127.66 21.3703L126.806 20.8497ZM126.358 22.49C126.358 23.0779 126.506 23.6265 126.803 24.1257L127.662 23.6143C127.459 23.2735 127.358 22.9021 127.358 22.49H126.358ZM126.808 24.1332C127.109 24.6207 127.507 25.0131 127.997 25.3046L128.508 24.4454C128.158 24.2369 127.876 23.9593 127.658 23.6068L126.808 24.1332ZM127.997 25.3046C128.498 25.6027 129.052 25.75 129.648 25.75V24.75C129.224 24.75 128.848 24.6473 128.508 24.4454L127.997 25.3046ZM141.911 23.96L141.46 23.7443L141.458 23.7471L141.911 23.96ZM140.576 25.565L140.858 25.9777L140.576 25.565ZM136.706 25.565L136.42 25.9753L136.423 25.9777L136.706 25.565ZM135.371 23.96L134.92 24.1757L134.921 24.1783L135.371 23.96ZM135.371 19.265L135.821 19.4833L135.822 19.4807L135.371 19.265ZM136.706 17.645L136.992 18.0553L136.993 18.0543L136.706 17.645ZM140.576 17.645L140.289 18.0543L140.293 18.0577L140.576 17.645ZM141.911 19.265L141.457 19.4754L141.461 19.4833L141.911 19.265ZM141.026 19.73L140.566 19.9259L141.026 19.73ZM140.066 18.47L139.764 18.8689L139.771 18.8735L140.066 18.47ZM137.216 18.47L137.511 18.8736L137.517 18.8688L137.216 18.47ZM136.241 19.73L135.784 19.5269L135.781 19.5341L136.241 19.73ZM136.241 23.48L135.781 23.676L135.784 23.6831L136.241 23.48ZM137.216 24.74L137.511 24.3365L137.216 24.74ZM140.066 24.74L140.361 25.1436L140.367 25.1388L140.066 24.74ZM141.026 23.48L141.484 23.6791L141.486 23.6759L141.026 23.48ZM141.906 21.605C141.906 22.4216 141.753 23.1311 141.46 23.7443L142.362 24.1757C142.729 23.4089 142.906 22.5484 142.906 21.605H141.906ZM141.458 23.7471C141.173 24.3539 140.784 24.817 140.293 25.1523L140.858 25.9777C141.508 25.533 142.009 24.9261 142.363 24.1729L141.458 23.7471ZM140.293 25.1523C139.81 25.4829 139.265 25.65 138.641 25.65V26.65C139.457 26.65 140.201 26.4271 140.858 25.9777L140.293 25.1523ZM138.641 25.65C138.017 25.65 137.471 25.4829 136.988 25.1523L136.423 25.9777C137.08 26.4271 137.825 26.65 138.641 26.65V25.65ZM136.992 25.1547C136.509 24.8187 136.117 24.3532 135.821 23.7417L134.921 24.1783C135.284 24.9268 135.782 25.5313 136.42 25.9753L136.992 25.1547ZM135.822 23.7443C135.529 23.1311 135.376 22.4216 135.376 21.605H134.376C134.376 22.5484 134.553 23.4089 134.92 24.1757L135.822 23.7443ZM135.376 21.605C135.376 20.7882 135.529 20.0849 135.821 19.4833L134.921 19.0467C134.553 19.8051 134.376 20.6618 134.376 21.605H135.376ZM135.822 19.4807C136.119 18.8592 136.511 18.3901 136.992 18.0553L136.42 17.2347C135.781 17.6799 135.282 18.2908 134.92 19.0493L135.822 19.4807ZM136.993 18.0543C137.476 17.7154 138.02 17.545 138.641 17.545V16.545C137.822 16.545 137.076 16.7746 136.419 17.2357L136.993 18.0543ZM138.641 17.545C139.262 17.545 139.806 17.7154 140.289 18.0543L140.863 17.2357C140.206 16.7746 139.46 16.545 138.641 16.545V17.545ZM140.293 18.0577C140.782 18.3918 141.171 18.8585 141.457 19.4754L142.364 19.0546C142.01 18.2915 141.51 17.6782 140.858 17.2323L140.293 18.0577ZM141.461 19.4833C141.753 20.0849 141.906 20.7882 141.906 21.605H142.906C142.906 20.6618 142.729 19.8051 142.361 19.0467L141.461 19.4833ZM141.871 21.605C141.871 20.8415 141.747 20.1476 141.486 19.5341L140.566 19.9259C140.764 20.3924 140.871 20.9485 140.871 21.605H141.871ZM141.486 19.5341C141.226 18.9244 140.854 18.4274 140.361 18.0665L139.771 18.8735C140.097 19.1126 140.365 19.4556 140.566 19.9259L141.486 19.5341ZM140.367 18.0712C139.866 17.6921 139.284 17.505 138.641 17.505V18.505C139.078 18.505 139.446 18.6279 139.764 18.8688L140.367 18.0712ZM138.641 17.505C137.998 17.505 137.416 17.6921 136.914 18.0712L137.517 18.8688C137.836 18.6279 138.204 18.505 138.641 18.505V17.505ZM136.921 18.0665C136.429 18.4259 136.053 18.9203 135.784 19.5269L136.698 19.9331C136.908 19.4597 137.182 19.1141 137.511 18.8735L136.921 18.0665ZM135.781 19.5341C135.519 20.1476 135.396 20.8415 135.396 21.605H136.396C136.396 20.9485 136.502 20.3924 136.701 19.9259L135.781 19.5341ZM135.396 21.605C135.396 22.3685 135.519 23.0624 135.781 23.6759L136.701 23.2841C136.502 22.8176 136.396 22.2615 136.396 21.605H135.396ZM135.784 23.6831C136.053 24.2897 136.429 24.7841 136.921 25.1435L137.511 24.3365C137.182 24.0959 136.908 23.7503 136.698 23.2769L135.784 23.6831ZM136.921 25.1435C137.422 25.5103 138.002 25.69 138.641 25.69V24.69C138.2 24.69 137.83 24.5697 137.511 24.3365L136.921 25.1435ZM138.641 25.69C139.28 25.69 139.86 25.5103 140.361 25.1435L139.771 24.3365C139.452 24.5697 139.082 24.69 138.641 24.69V25.69ZM140.367 25.1388C140.854 24.7707 141.224 24.2781 141.484 23.679L140.567 23.281C140.367 23.7419 140.097 24.0893 139.764 24.3412L140.367 25.1388ZM141.486 23.6759C141.747 23.0624 141.871 22.3685 141.871 21.605H140.871C140.871 22.2615 140.764 22.8176 140.566 23.2841L141.486 23.6759Z" fill="#F47416"/>
</svg>
